<mxfile host="app.diagrams.net" modified="2020-07-19T04:51:20.081Z" agent="5.0 (Windows NT 10.0; Win64; x64) AppleWebKit/537.36 (KHTML, like Gecko) Chrome/83.0.4103.116 Safari/537.36" etag="09-YlZSCqpUItOK5XRUP" version="13.4.6" type="github">
  <diagram name="Page-1" id="929967ad-93f9-6ef4-fab6-5d389245f69c">
    <mxGraphModel dx="3175.5" dy="762" grid="1" gridSize="10" guides="1" tooltips="1" connect="1" arrows="1" fold="1" page="1" pageScale="1.5" pageWidth="1169" pageHeight="826" background="none" math="0" shadow="0">
      <root>
        <mxCell id="0" style=";html=1;" />
        <mxCell id="1" style=";html=1;" parent="0" />
        <mxCell id="1672d66443f91eb5-23" value="HDFS系统基本架构" style="text;strokeColor=none;fillColor=none;html=1;fontSize=24;fontStyle=1;verticalAlign=middle;align=center;" parent="1" vertex="1">
          <mxGeometry x="-100" y="10" width="460" height="40" as="geometry" />
        </mxCell>
        <mxCell id="Z8tPX4l9vtMx5wKUZ_xW-3" value="" style="endArrow=classic;startArrow=classic;html=1;" parent="1" source="Z8tPX4l9vtMx5wKUZ_xW-6" target="Z8tPX4l9vtMx5wKUZ_xW-4" edge="1">
          <mxGeometry width="50" height="50" relative="1" as="geometry">
            <mxPoint x="200.01" y="259.98" as="sourcePoint" />
            <mxPoint x="280" y="220" as="targetPoint" />
          </mxGeometry>
        </mxCell>
        <mxCell id="Z8tPX4l9vtMx5wKUZ_xW-5" value="Metedata Ops&lt;br&gt;元数据心跳" style="edgeLabel;html=1;align=center;verticalAlign=middle;resizable=0;points=[];fontSize=16;" parent="Z8tPX4l9vtMx5wKUZ_xW-3" vertex="1" connectable="0">
          <mxGeometry x="-0.1067" y="-1" relative="1" as="geometry">
            <mxPoint as="offset" />
          </mxGeometry>
        </mxCell>
        <mxCell id="Z8tPX4l9vtMx5wKUZ_xW-6" value="Client&lt;br&gt;客户端" style="ellipse;whiteSpace=wrap;html=1;aspect=fixed;fontSize=18;fillColor=#ffe6cc;strokeColor=#d79b00;" parent="1" vertex="1">
          <mxGeometry x="170" y="270" width="80" height="80" as="geometry" />
        </mxCell>
        <mxCell id="Z8tPX4l9vtMx5wKUZ_xW-9" value="" style="shape=flexArrow;endArrow=classic;startArrow=classic;html=1;fontSize=18;" parent="1" edge="1">
          <mxGeometry width="50" height="50" relative="1" as="geometry">
            <mxPoint x="10" y="310" as="sourcePoint" />
            <mxPoint x="150" y="309.5" as="targetPoint" />
            <Array as="points">
              <mxPoint x="110" y="309.5" />
            </Array>
          </mxGeometry>
        </mxCell>
        <mxCell id="Z8tPX4l9vtMx5wKUZ_xW-10" value="Read&lt;br&gt;&lt;br&gt;Write" style="edgeLabel;html=1;align=center;verticalAlign=middle;resizable=0;points=[];fontSize=18;" parent="Z8tPX4l9vtMx5wKUZ_xW-9" vertex="1" connectable="0">
          <mxGeometry x="-0.0333" y="1" relative="1" as="geometry">
            <mxPoint x="2.01" y="1.3399999999999999" as="offset" />
          </mxGeometry>
        </mxCell>
        <mxCell id="Z8tPX4l9vtMx5wKUZ_xW-14" value="" style="edgeStyle=orthogonalEdgeStyle;rounded=0;orthogonalLoop=1;jettySize=auto;html=1;fontSize=18;" parent="1" source="Z8tPX4l9vtMx5wKUZ_xW-4" target="2" edge="1">
          <mxGeometry relative="1" as="geometry" />
        </mxCell>
        <mxCell id="Z8tPX4l9vtMx5wKUZ_xW-4" value="NameNode&lt;br&gt;名称节点" style="rounded=1;whiteSpace=wrap;html=1;fontSize=18;fillColor=#dae8fc;strokeColor=#6c8ebf;" parent="1" vertex="1">
          <mxGeometry x="570" y="140" width="120" height="60" as="geometry" />
        </mxCell>
        <mxCell id="2" value="&lt;span&gt;Metadata(name, replicas, ...)：/data/block1&lt;/span&gt;&lt;br&gt;&lt;span&gt;存储元数据，指向具体地址，在内存中，为保证重启服务器不丢失，也会在磁盘中保存一分份&lt;/span&gt;" style="shape=note;whiteSpace=wrap;html=1;backgroundOutline=1;darkOpacity=0.05;rounded=1;fontSize=18;size=22;fillColor=#d5e8d4;strokeColor=#82b366;" parent="1" vertex="1">
          <mxGeometry x="427.5" y="30" width="405" height="80" as="geometry" />
        </mxCell>
        <mxCell id="Z8tPX4l9vtMx5wKUZ_xW-16" value="&lt;span&gt;Datanodes&lt;br&gt;数据节点&lt;br&gt;&lt;/span&gt;" style="rounded=0;whiteSpace=wrap;html=1;fontSize=18;align=left;verticalAlign=top;fillColor=#dae8fc;strokeColor=#6c8ebf;" parent="1" vertex="1">
          <mxGeometry x="760" y="410" width="650" height="480" as="geometry" />
        </mxCell>
        <mxCell id="Z8tPX4l9vtMx5wKUZ_xW-19" value="" style="endArrow=classic;html=1;strokeColor=#000000;fontSize=18;fontColor=#000000;" parent="1" source="Z8tPX4l9vtMx5wKUZ_xW-4" target="Z8tPX4l9vtMx5wKUZ_xW-16" edge="1">
          <mxGeometry width="50" height="50" relative="1" as="geometry">
            <mxPoint x="750" y="290" as="sourcePoint" />
            <mxPoint x="800" y="240" as="targetPoint" />
          </mxGeometry>
        </mxCell>
        <mxCell id="Z8tPX4l9vtMx5wKUZ_xW-20" value="Block&amp;nbsp;Ops&lt;br&gt;块心跳" style="edgeLabel;html=1;align=center;verticalAlign=middle;resizable=0;points=[];fontSize=18;fontColor=#000000;" parent="Z8tPX4l9vtMx5wKUZ_xW-19" vertex="1" connectable="0">
          <mxGeometry x="-0.1913" y="1" relative="1" as="geometry">
            <mxPoint x="1" as="offset" />
          </mxGeometry>
        </mxCell>
        <mxCell id="Z8tPX4l9vtMx5wKUZ_xW-25" value="" style="group" parent="1" vertex="1" connectable="0">
          <mxGeometry x="860" y="510" width="140" height="220" as="geometry" />
        </mxCell>
        <mxCell id="Z8tPX4l9vtMx5wKUZ_xW-21" value="Rack1" style="rounded=0;whiteSpace=wrap;html=1;fontSize=18;align=left;verticalAlign=top;fillColor=#e1d5e7;strokeColor=#9673a6;" parent="Z8tPX4l9vtMx5wKUZ_xW-25" vertex="1">
          <mxGeometry width="140" height="220" as="geometry" />
        </mxCell>
        <mxCell id="Z8tPX4l9vtMx5wKUZ_xW-22" value="Block1" style="rounded=0;whiteSpace=wrap;html=1;fontSize=18;align=left;verticalAlign=top;fillColor=#60a917;strokeColor=#2D7600;fontColor=#ffffff;" parent="Z8tPX4l9vtMx5wKUZ_xW-25" vertex="1">
          <mxGeometry x="10" y="50" width="75" height="40" as="geometry" />
        </mxCell>
        <mxCell id="Z8tPX4l9vtMx5wKUZ_xW-23" value="Block2" style="rounded=0;whiteSpace=wrap;html=1;fontSize=18;align=left;verticalAlign=top;fillColor=#60a917;strokeColor=#2D7600;fontColor=#ffffff;" parent="Z8tPX4l9vtMx5wKUZ_xW-25" vertex="1">
          <mxGeometry x="10" y="100" width="75" height="40" as="geometry" />
        </mxCell>
        <mxCell id="Z8tPX4l9vtMx5wKUZ_xW-24" value="Block3&lt;br&gt;..." style="rounded=0;whiteSpace=wrap;html=1;fontSize=18;align=left;verticalAlign=top;fillColor=#60a917;strokeColor=#2D7600;fontColor=#ffffff;" parent="Z8tPX4l9vtMx5wKUZ_xW-25" vertex="1">
          <mxGeometry x="10" y="150" width="75" height="50" as="geometry" />
        </mxCell>
        <mxCell id="Z8tPX4l9vtMx5wKUZ_xW-26" value="" style="group" parent="1" vertex="1" connectable="0">
          <mxGeometry x="1040" y="510" width="140" height="220" as="geometry" />
        </mxCell>
        <mxCell id="Z8tPX4l9vtMx5wKUZ_xW-27" value="Rack2" style="rounded=0;whiteSpace=wrap;html=1;fontSize=18;align=left;verticalAlign=top;fillColor=#e1d5e7;strokeColor=#9673a6;" parent="Z8tPX4l9vtMx5wKUZ_xW-26" vertex="1">
          <mxGeometry width="140" height="220" as="geometry" />
        </mxCell>
        <mxCell id="Z8tPX4l9vtMx5wKUZ_xW-28" value="Block1" style="rounded=0;whiteSpace=wrap;html=1;fontSize=18;align=left;verticalAlign=top;fillColor=#60a917;strokeColor=#2D7600;fontColor=#ffffff;" parent="Z8tPX4l9vtMx5wKUZ_xW-26" vertex="1">
          <mxGeometry x="10" y="50" width="75" height="40" as="geometry" />
        </mxCell>
        <mxCell id="Z8tPX4l9vtMx5wKUZ_xW-29" value="Block2" style="rounded=0;whiteSpace=wrap;html=1;fontSize=18;align=left;verticalAlign=top;fillColor=#60a917;strokeColor=#2D7600;fontColor=#ffffff;" parent="Z8tPX4l9vtMx5wKUZ_xW-26" vertex="1">
          <mxGeometry x="10" y="100" width="75" height="40" as="geometry" />
        </mxCell>
        <mxCell id="Z8tPX4l9vtMx5wKUZ_xW-30" value="Block3&lt;br&gt;..." style="rounded=0;whiteSpace=wrap;html=1;fontSize=18;align=left;verticalAlign=top;fillColor=#60a917;strokeColor=#2D7600;fontColor=#ffffff;" parent="Z8tPX4l9vtMx5wKUZ_xW-26" vertex="1">
          <mxGeometry x="10" y="150" width="75" height="50" as="geometry" />
        </mxCell>
        <mxCell id="Z8tPX4l9vtMx5wKUZ_xW-32" value="" style="group" parent="1" vertex="1" connectable="0">
          <mxGeometry x="1220" y="510" width="140" height="220" as="geometry" />
        </mxCell>
        <mxCell id="Z8tPX4l9vtMx5wKUZ_xW-33" value="Rack3" style="rounded=0;whiteSpace=wrap;html=1;fontSize=18;align=left;verticalAlign=top;fillColor=#e1d5e7;strokeColor=#9673a6;" parent="Z8tPX4l9vtMx5wKUZ_xW-32" vertex="1">
          <mxGeometry width="140" height="220" as="geometry" />
        </mxCell>
        <mxCell id="Z8tPX4l9vtMx5wKUZ_xW-34" value="Block1" style="rounded=0;whiteSpace=wrap;html=1;fontSize=18;align=left;verticalAlign=top;fillColor=#60a917;strokeColor=#2D7600;fontColor=#ffffff;" parent="Z8tPX4l9vtMx5wKUZ_xW-32" vertex="1">
          <mxGeometry x="10" y="50" width="75" height="40" as="geometry" />
        </mxCell>
        <mxCell id="Z8tPX4l9vtMx5wKUZ_xW-35" value="Block2" style="rounded=0;whiteSpace=wrap;html=1;fontSize=18;align=left;verticalAlign=top;fillColor=#60a917;strokeColor=#2D7600;fontColor=#ffffff;" parent="Z8tPX4l9vtMx5wKUZ_xW-32" vertex="1">
          <mxGeometry x="10" y="100" width="75" height="40" as="geometry" />
        </mxCell>
        <mxCell id="Z8tPX4l9vtMx5wKUZ_xW-36" value="Block3&lt;br&gt;..." style="rounded=0;whiteSpace=wrap;html=1;fontSize=18;align=left;verticalAlign=top;fillColor=#60a917;strokeColor=#2D7600;fontColor=#ffffff;" parent="Z8tPX4l9vtMx5wKUZ_xW-32" vertex="1">
          <mxGeometry x="10" y="150" width="75" height="50" as="geometry" />
        </mxCell>
        <mxCell id="Z8tPX4l9vtMx5wKUZ_xW-37" value="为保证数据完整，会默认保存3个副本" style="text;html=1;align=center;verticalAlign=middle;resizable=0;points=[];autosize=1;fontSize=18;fontColor=#000000;" parent="1" vertex="1">
          <mxGeometry x="955" y="750" width="310" height="30" as="geometry" />
        </mxCell>
      </root>
    </mxGraphModel>
  </diagram>
</mxfile>
